# File created by Blade
# Date/Time:  Thu Sep 25 15:41:58 2014
# Frame Rate: 120.000 fps
#------------------------------------------------------
:FULLY-SPECIFIED
:DEGREES
309
root 27.241949 32.373627 -2.289214 156.195241 -73.260756 -127.843659
Spine 14.499446 14.726407 8.178411
Head -21.438738 -1.660764 5.242994
LeftShoulder 4.691726 13.379225 14.646482
LeftArm 51.723019 30.195892 -54.240974
LeftForeArm 2.446078 -0.000000 18.350824
LeftHand -27.347288 -0.000000 12.062291
LeftHandThumb1 -26.253704 0.000000 33.147579
RightShoulder 0.270577 21.223004 -19.839611
RightArm 19.415693 -42.421958 80.078466
RightForeArm -24.703012 0.000000 15.809856
RightHand -3.201920 -0.000000 4.304909
RightHandThumb1 -24.326973 -0.000000 -32.862282
LeftUpLeg -60.086664 14.433690 1.815403
LeftLeg 5.892362 -0.000000 -0.000000
LeftFoot 36.888186 28.682155 -18.576507
LeftToeBase 16.848996 -0.000000 -0.000000
RightUpLeg -27.091791 0.634874 21.726515
RightLeg 4.333379 -0.000000 -0.000000
RightFoot -7.302231 -7.157518 -10.268917
RightToeBase -0.432032 -0.000000 0.000000
310
root 27.260803 32.374416 -2.290794 156.195156 -73.359500 -127.707917
Spine 14.713282 14.685657 8.107968
Head -21.847835 -1.683763 5.293639
LeftShoulder 4.910533 13.105012 14.623099
LeftArm 51.984890 29.991088 -53.990089
LeftForeArm 2.302908 -0.000000 18.185883
LeftHand -27.316677 -0.000000 11.684193
LeftHandThumb1 -26.253704 0.000000 33.147579
RightShoulder 0.333468 21.154704 -19.730488
RightArm 19.982183 -42.303506 79.640031
RightForeArm -24.680182 0.000000 15.677532
RightHand -3.101738 -0.000000 4.462929
RightHandThumb1 -24.326973 -0.000000 -32.862282
LeftUpLeg -60.473288 14.223707 1.893535
LeftLeg 6.213959 -0.000000 -0.000000
LeftFoot 37.051488 28.973980 -18.354800
LeftToeBase 17.559096 -0.000000 -0.000000
RightUpLeg -27.274079 0.585369 21.727092
RightLeg 4.359266 -0.000000 -0.000000
RightFoot -7.360569 -7.054619 -10.177779
RightToeBase -0.356945 -0.000000 0.000000
311
root 27.279028 32.375141 -2.290493 156.231172 -73.471756 -127.608774
Spine 14.925801 14.640148 8.026676
Head -22.229576 -1.694820 5.327351
LeftShoulder 5.121511 12.934631 14.561998
LeftArm 52.474188 29.803834 -53.448950
LeftForeArm 2.006919 -0.000000 18.002530
LeftHand -27.272358 -0.000000 11.421855
LeftHandThumb1 -26.253704 0.000000 33.147579
RightShoulder 0.520741 21.302068 -19.660246
RightArm 20.065358 -41.975679 79.563664
RightForeArm -24.846100 -0.000000 15.666316
RightHand -3.041516 -0.000000 4.543284
RightHandThumb1 -24.326973 -0.000000 -32.862282
LeftUpLeg -60.924944 14.045896 1.881779
LeftLeg 6.672844 -0.000000 -0.000000
LeftFoot 37.054189 29.261127 -18.208303
LeftToeBase 18.586257 -0.000000 -0.000000
RightUpLeg -27.481795 0.537446 21.707230
RightLeg 4.419348 -0.000000 -0.000000
RightFoot -7.408883 -7.044964 -10.161450
RightToeBase -0.312188 -0.000000 0.000000
312
root 27.294716 32.374665 -2.292206 156.098416 -73.580811 -127.352870
Spine 15.160126 14.587625 8.002216
Head -22.625428 -1.735325 5.350747
LeftShoulder 5.394681 12.624305 14.516821
LeftArm 52.773315 29.662005 -53.068017
LeftForeArm 1.882075 -0.000000 17.799676
LeftHand -27.064553 0.000000 11.227466
LeftHandThumb1 -26.253704 0.000000 33.147579
RightShoulder 0.705439 21.283820 -19.586305
RightArm 20.430713 -41.765761 79.226009
RightForeArm -25.002318 -0.000000 15.672856
RightHand -3.178253 -0.000000 4.576450
RightHandThumb1 -24.326973 -0.000000 -32.862282
LeftUpLeg -61.352801 13.877589 1.863609
LeftLeg 7.015666 -0.000000 -0.000000
LeftFoot 37.249724 29.546951 -17.972298
LeftToeBase 19.102802 -0.000000 -0.000000
RightUpLeg -27.641088 0.492575 21.718653
RightLeg 4.404868 -0.000000 -0.000000
RightFoot -7.387560 -7.086256 -10.217209
RightToeBase -0.446503 -0.000000 0.000000
313
root 27.310602 32.374823 -2.296230 155.839962 -73.683351 -126.962322
Spine 15.417468 14.547579 8.036852
Head -23.064876 -1.802526 5.357446
LeftShoulder 5.659499 12.454353 14.454708
LeftArm 53.321502 29.465507 -52.496042
LeftForeArm 1.644295 0.000000 17.537086
LeftHand -26.822631 0.000000 11.019560
LeftHandThumb1 -26.253704 0.000000 33.147579
RightShoulder 0.854936 21.396801 -19.527237
RightArm 20.707833 -41.615151 78.920860
RightForeArm -24.933317 -0.000000 15.593274
RightHand -3.030785 -0.000000 4.704480
RightHandThumb1 -24.326973 -0.000000 -32.862282
LeftUpLeg -61.829393 13.750071 1.792578
LeftLeg 7.372800 -0.000000 -0.000000
LeftFoot 37.408645 29.735217 -17.683186
LeftToeBase 19.889787 -0.000000 -0.000000
RightUpLeg -27.791502 0.491524 21.739487
RightLeg 4.380191 -0.000000 -0.000000
RightFoot -7.404678 -7.106255 -10.118924
RightToeBase -0.372401 -0.000000 0.000000
314
root 27.327641 32.372335 -2.301249 155.564232 -73.809958 -126.561162
Spine 15.663114 14.422526 8.067157
Head -23.436251 -1.818282 5.311666
LeftShoulder 5.922572 12.277881 14.373983
LeftArm 53.829151 29.260451 -51.879726
LeftForeArm 1.466469 -0.000000 17.279274
LeftHand -26.647474 -0.000000 10.630865
LeftHandThumb1 -26.253704 0.000000 33.147579
RightShoulder 1.437812 22.074011 -19.542934
RightArm 19.759106 -40.948203 79.570514
RightForeArm -25.472249 0.000000 15.714358
RightHand -2.990691 -0.000000 4.531160
RightHandThumb1 -24.326973 -0.000000 -32.862282
LeftUpLeg -62.297130 13.586884 1.744838
LeftLeg 7.709696 -0.000000 -0.000000
LeftFoot 37.599234 29.969856 -17.397368
LeftToeBase 20.866509 -0.000000 -0.000000
RightUpLeg -27.941906 0.524225 21.732832
RightLeg 4.347111 -0.000000 -0.000000
RightFoot -7.409297 -7.245854 -10.060587
RightToeBase -0.363785 -0.000000 0.000000
315
root 27.343130 32.370610 -2.307485 155.190495 -73.899990 -126.041313
Spine 15.902587 14.363197 8.162512
Head -23.824963 -1.856811 5.270522
LeftShoulder 6.319636 11.871867 14.311496
LeftArm 53.979427 29.099193 -51.487879
LeftForeArm 1.525722 -0.000000 17.281094
LeftHand -26.990796 -0.000000 10.111010
LeftHandThumb1 -26.253704 0.000000 33.147579
RightShoulder 1.742588 22.184115 -19.526868
RightArm 19.883510 -40.552235 79.422383
RightForeArm -25.825362 -0.000000 15.666544
RightHand -2.919402 0.000000 4.493546
RightHandThumb1 -24.326973 -0.000000 -32.862282
LeftUpLeg -62.796523 13.486624 1.652706
LeftLeg 8.003015 -0.000000 -0.000000
LeftFoot 37.823427 30.071273 -16.987900
LeftToeBase 21.460180 -0.000000 -0.000000
RightUpLeg -28.083701 0.573993 21.767762
RightLeg 4.283638 -0.000000 -0.000000
RightFoot -7.356214 -7.348782 -10.040245
RightToeBase -0.426492 -0.000000 0.000000
316
root 27.357321 32.369421 -2.312558 154.893015 -73.978145 -125.601487
Spine 16.160191 14.345046 8.230514
Head -24.206542 -1.904487 5.257062
LeftShoulder 6.710479 11.619163 14.256524
LeftArm 54.433563 28.921830 -50.794702
LeftForeArm 1.252896 -0.000000 17.143048
LeftHand -26.931412 0.000000 9.758567
LeftHandThumb1 -26.253704 0.000000 33.147579
RightShoulder 2.012249 22.318083 -19.495428
RightArm 20.112006 -40.211645 79.211231
RightForeArm -26.057865 -0.000000 15.455951
RightHand -2.733045 -0.000000 4.517137
RightHandThumb1 -24.326973 -0.000000 -32.862282
LeftUpLeg -63.290019 13.423216 1.505157
LeftLeg 8.297506 -0.000000 -0.000000
LeftFoot 38.062639 30.015772 -16.463660
LeftToeBase 22.150631 -0.000000 -0.000000
RightUpLeg -28.232530 0.638550 21.786662
RightLeg 4.248452 -0.000000 -0.000000
RightFoot -7.330248 -7.444987 -9.961091
RightToeBase -0.414638 -0.000000 0.000000
317
root 27.360320 32.366827 -2.321030 154.374730 -74.064065 -125.080521
Spine 16.628750 14.268288 8.375346
Head -24.676772 -1.995859 5.171558
LeftShoulder 7.074203 11.458392 14.160708
LeftArm 55.052492 28.656737 -49.967203
LeftForeArm 1.082100 -0.000000 16.943106
LeftHand -26.866478 -0.000000 9.343938
LeftHandThumb1 -26.253704 0.000000 33.147579
RightShoulder 2.275291 22.521359 -19.452185
RightArm 20.390790 -40.013226 78.861426
RightForeArm -26.170461 -0.000000 15.338111
RightHand -2.653390 -0.000000 4.624361
RightHandThumb1 -24.326973 -0.000000 -32.862282
LeftUpLeg -63.600238 13.333900 1.434838
LeftLeg 8.533499 -0.000000 -0.000000
LeftFoot 38.263876 30.119289 -15.989950
LeftToeBase 23.610221 -0.000000 -0.000000
RightUpLeg -28.215311 0.599433 21.839370
RightLeg 4.174970 -0.000000 -0.000000
RightFoot -7.307549 -7.511000 -9.943141
RightToeBase -0.461293 -0.000000 0.000000
318
root 27.369330 32.365110 -2.324868 153.998379 -74.136837 -124.606591
Spine 16.983888 14.165805 8.475443
Head -25.139100 -1.913914 5.100860
LeftShoulder 7.460913 10.963732 14.076252
LeftArm 55.203920 28.476141 -49.562738
LeftForeArm 0.947974 -0.000000 16.757403
LeftHand -26.790200 -0.000000 9.813090
LeftHandThumb1 -26.253704 0.000000 33.147579
RightShoulder 2.565028 22.658486 -19.391369
RightArm 20.772900 -39.866212 78.403397
RightForeArm -26.228559 -0.000000 15.307525
RightHand -2.700568 -0.000000 4.749065
RightHandThumb1 -24.326973 -0.000000 -32.862282
LeftUpLeg -63.994348 13.245513 1.338320
LeftLeg 8.735347 -0.000000 -0.000000
LeftFoot 38.498688 30.107043 -15.397046
LeftToeBase 24.476862 -0.000000 -0.000000
RightUpLeg -28.316041 0.624144 21.874944
RightLeg 4.139629 -0.000000 -0.000000
RightFoot -7.284400 -7.614462 -9.928287
RightToeBase -0.495146 -0.000000 0.000000
319
root 27.383023 32.364514 -2.328596 153.751520 -74.159376 -124.218972
Spine 17.309271 14.175402 8.560898
Head -25.604431 -1.893274 5.041388
LeftShoulder 7.925220 10.440496 14.075761
LeftArm 55.198981 28.056671 -49.652347
LeftForeArm 1.097845 -0.000000 16.423811
LeftHand -26.448781 -0.000000 9.993021
LeftHandThumb1 -26.253704 0.000000 33.147579
RightShoulder 2.783519 22.759544 -19.351899
RightArm 21.262293 -39.830364 77.833758
RightForeArm -26.094366 0.000000 15.272408
RightHand -2.771000 -0.000000 4.783802
RightHandThumb1 -24.326973 -0.000000 -32.862282
LeftUpLeg -64.424580 13.217362 1.230262
LeftLeg 8.901464 -0.000000 -0.000000
LeftFoot 38.767167 30.044886 -14.911853
LeftToeBase 25.495769 -0.000000 -0.000000
RightUpLeg -28.439152 0.830141 21.859800
RightLeg 4.084188 -0.000000 -0.000000
RightFoot -7.226248 -7.827276 -9.832044
RightToeBase -0.405093 -0.000000 0.000000
